# File created by Blade
# Date/Time:  Tue Sep 30 19:31:19 2014
#---------------------------------------------------------
:version 1.10
:name HOM
:units
  mass 1.0
  length 1.000000
  angle deg
:documentation
     Acclaim Skeleton File
:root
   axis xyz
   order TX TY TZ RX RY RZ
   position 0.000000 0.000000 0.000000
   orientation 0 0 0
:bonedata
   begin
      id 1
      name Spine_dum
      direction 0.000000 1.000000 0.000000
      length 3.241213
      axis 0.0 0.0 0.0 xyz
   end
   begin
      id 2
      name LeftUpLeg_dum
      direction 1.000000 0.000000 0.000000
      length 3.434019
      axis 0.0 0.0 0.0 xyz
   end
   begin
      id 3
      name RightUpLeg_dum
      direction -1.000000 0.000000 0.000000
      length 3.434019
      axis 0.0 0.0 0.0 xyz
   end
   begin
      id 4
      name Spine
      direction 0.000000 1.000000 0.000000
      length 0.000000
      axis 0.0 0.0 0.0 xyz
      dof rx ry rz
   end
   begin
      id 5
      name Spine_dum1
      direction 0.000000 1.000000 0.000000
      length 18.382958
      axis 0.0 0.0 0.0 xyz
   end
   begin
      id 6
      name Spine_dum2
      direction 0.000000 1.000000 0.000000
      length 12.828261
      axis 0.0 0.0 0.0 xyz
   end
   begin
      id 7
      name Spine_dum3
      direction 0.000000 1.000000 0.000000
      length 12.828261
      axis 0.0 0.0 0.0 xyz
   end
   begin
      id 8
      name Head
      direction 0.000000 1.000000 0.000000
      length 4.527550
      axis 0.0 0.0 0.0 xyz
      dof rx ry rz
   end
   begin
      id 9
      name LeftShoulder
      direction 1.000000 0.000000 0.000000
      length 7.748055
      axis 0.0 0.0 -90.0 xyz
      dof rx ry rz
   end
   begin
      id 10
      name LeftArm
      direction 1.000000 0.000000 0.000000
      length 10.635614
      axis 0.0 0.0 -90.0 xyz
      dof rx ry rz
   end
   begin
      id 11
      name LeftForeArm
      direction 1.000000 0.000000 0.000000
      length 8.346755
      axis 0.0 0.0 -90.0 xyz
      dof ry rz rx
   end
   begin
      id 12
      name LeftHand
      direction 0.000000 0.000000 0.000000
      length 0.000000
      axis 0.0 0.0 -90.0 xyz
      dof rx ry rz
   end
   begin
      id 13
      name LeftHand_dum1
      direction 0.000000 0.000000 0.000000
      length 0.000000
      axis 0.0 0.0 -90.0 xyz
   end
   begin
      id 14
      name LeftHand_dum2
      direction 1.000000 0.000000 0.000000
      length 3.937000
      axis 0.0 0.0 -90.0 xyz
   end
   begin
      id 15
      name LeftHandThumb1
      direction 0.000000 0.000000 1.000000
      length 3.937000
      axis 0.0 0.0 -90.0 xyz
      dof rx rz ry
   end
   begin
      id 16
      name RightShoulder
      direction -1.000000 0.000000 0.000000
      length 7.748055
      axis 0.0 0.0 90.0 xyz
      dof rx ry rz
   end
   begin
      id 17
      name RightArm
      direction -1.000000 0.000000 0.000000
      length 10.635614
      axis 0.0 0.0 90.0 xyz
      dof rx ry rz
   end
   begin
      id 18
      name RightForeArm
      direction -1.000000 0.000000 0.000000
      length 8.346755
      axis 0.0 0.0 90.0 xyz
      dof ry rz rx
   end
   begin
      id 19
      name RightHand
      direction 0.000000 0.000000 0.000000
      length 0.000000
      axis 0.0 0.0 90.0 xyz
      dof rx ry rz
   end
   begin
      id 20
      name RightHand_dum1
      direction 0.000000 0.000000 0.000000
      length 0.000000
      axis 0.0 0.0 90.0 xyz
   end
   begin
      id 21
      name RightHand_dum2
      direction -1.000000 0.000000 0.000000
      length 3.937000
      axis 0.0 0.0 90.0 xyz
   end
   begin
      id 22
      name RightHandThumb1
      direction 0.000000 0.000000 1.000000
      length 3.937000
      axis 0.0 0.0 90.0 xyz
      dof rx rz ry
   end
   begin
      id 23
      name LeftUpLeg
      direction 0.000000 -1.000000 0.000000
      length 15.713025
      axis 0.0 0.0 0.0 xyz
      dof rx ry rz
   end
   begin
      id 24
      name LeftLeg
      direction 0.000000 -1.000000 0.000000
      length 14.435119
      axis 0.0 0.0 0.0 xyz
      dof rx ry rz
   end
   begin
      id 25
      name LeftFoot
      direction 0.000000 -0.258819 0.965926
      length 4.938895
      axis 15.0 0.0 0.0 xyz
      dof rx ry rz
   end
   begin
      id 26
      name LeftToeBase
      direction 0.000000 0.000000 1.000000
      length 2.952750
      axis 0.0 0.0 0.0 xyz
      dof rx ry rz
   end
   begin
      id 27
      name RightUpLeg
      direction 0.000000 -1.000000 0.000000
      length 15.713025
      axis 0.0 0.0 0.0 xyz
      dof rx ry rz
   end
   begin
      id 28
      name RightLeg
      direction 0.000000 -1.000000 0.000000
      length 14.435119
      axis 0.0 0.0 0.0 xyz
      dof rx ry rz
   end
   begin
      id 29
      name RightFoot
      direction 0.000000 -0.258819 0.965926
      length 4.938895
      axis 15.0 0.0 0.0 xyz
      dof rx ry rz
   end
   begin
      id 30
      name RightToeBase
      direction 0.000000 0.000000 1.000000
      length 2.952750
      axis 0.0 0.0 0.0 xyz
      dof rx ry rz
   end
:hierarchy
   begin
      root Spine_dum LeftUpLeg_dum RightUpLeg_dum
      Spine_dum Spine
      LeftUpLeg_dum LeftUpLeg
      RightUpLeg_dum RightUpLeg
      Spine Spine_dum1 Spine_dum2 Spine_dum3
      Spine_dum1 Head
      Spine_dum2 LeftShoulder
      Spine_dum3 RightShoulder
      LeftShoulder LeftArm
      LeftArm LeftForeArm
      LeftForeArm LeftHand
      LeftHand LeftHand_dum1 LeftHand_dum2
      LeftHand_dum1 LeftHandThumb1
      RightShoulder RightArm
      RightArm RightForeArm
      RightForeArm RightHand
      RightHand RightHand_dum1 RightHand_dum2
      RightHand_dum1 RightHandThumb1
      LeftUpLeg LeftLeg
      LeftLeg LeftFoot
      LeftFoot LeftToeBase
      RightUpLeg RightLeg
      RightLeg RightFoot
      RightFoot RightToeBase
   end

# File created by Blade
# Date/Time:  Thu Sep 25 17:54:10 2014
# Frame Rate: 120.000 fps
#------------------------------------------------------
:FULLY-SPECIFIED
:DEGREES
762
root -0.308859 32.541074 -5.416730 28.429656 2.934024 0.873653
Spine -31.345435 3.189386 0.033458
Head 29.702308 -12.592654 3.853888
LeftShoulder -17.400264 32.128877 35.317693
LeftArm 127.988628 -67.386795 -150.925199
LeftForeArm -59.348748 0.000000 127.221572
LeftHand -13.025142 0.000000 -8.351797
LeftHandThumb1 -26.253704 0.000000 33.147579
RightShoulder -77.807007 49.861862 -149.515048
RightArm 59.069087 3.000231 62.079794
RightForeArm 21.600171 -0.000000 125.209695
RightHand 6.395712 -0.000000 5.728143
RightHandThumb1 -24.326973 -0.000000 -32.862282
LeftUpLeg -20.655640 4.300362 -0.163108
LeftLeg -2.473032 -0.000000 0.000000
LeftFoot -4.052981 -3.894165 -3.039494
LeftToeBase 2.838005 -0.000000 -0.000000
RightUpLeg -20.118507 -8.008339 4.406965
RightLeg -3.058416 -0.000000 0.000000
RightFoot -8.599288 -2.448162 10.904653
RightToeBase 15.494932 -0.000000 -0.000000
763
root -0.312340 32.540353 -5.406310 28.422030 3.018033 0.868424
Spine -31.369900 3.139548 0.041618
Head 29.669348 -12.423221 4.031567
LeftShoulder -17.315133 32.078782 35.387482
LeftArm 128.656899 -67.441230 -151.345467
LeftForeArm -59.361981 -0.000000 127.075315
LeftHand -12.959367 -0.000000 -8.358251
LeftHandThumb1 -26.253704 0.000000 33.147579
RightShoulder -77.399133 49.818955 -148.952885
RightArm 59.228033 3.223648 61.989044
RightForeArm 21.703708 -0.000000 125.131753
RightHand 6.395408 -0.000000 5.786783
RightHandThumb1 -24.326973 -0.000000 -32.862282
LeftUpLeg -20.635588 4.255184 -0.121996
LeftLeg -2.479119 -0.000000 0.000000
LeftFoot -4.061969 -3.908131 -3.039727
LeftToeBase 2.840182 -0.000000 -0.000000
RightUpLeg -20.081914 -8.020352 4.426890
RightLeg -3.061774 -0.000000 0.000000
RightFoot -8.603446 -2.494335 10.903915
RightToeBase 15.458073 -0.000000 -0.000000
764
root -0.315704 32.539334 -5.396074 28.410479 3.065924 0.868780
Spine -31.394321 3.110594 0.023933
Head 29.637249 -12.252545 4.225425
LeftShoulder -17.226410 32.043678 35.430181
LeftArm 129.464602 -67.449896 -151.812472
LeftForeArm -59.365657 -0.000000 126.900905
LeftHand -12.900408 -0.000000 -8.379173
LeftHandThumb1 -26.253704 0.000000 33.147579
RightShoulder -77.293198 49.780289 -148.776503
RightArm 59.096774 3.318820 61.932796
RightForeArm 21.832326 -0.000000 125.063780
RightHand 6.299526 -0.000000 5.821796
RightHandThumb1 -24.326973 -0.000000 -32.862282
LeftUpLeg -20.604739 4.253899 -0.109046
LeftLeg -2.498276 -0.000000 0.000000
LeftFoot -4.055459 -3.931520 -3.031128
LeftToeBase 2.865390 -0.000000 -0.000000
RightUpLeg -20.046963 -7.963339 4.411746
RightLeg -3.052746 -0.000000 0.000000
RightFoot -8.672608 -2.595764 10.807743
RightToeBase 15.559183 -0.000000 -0.000000
765
root -0.318209 32.538961 -5.385486 28.377551 3.141898 0.872430
Spine -31.403907 3.046062 0.036870
Head 29.631292 -12.041095 4.426776
LeftShoulder -17.120108 31.986790 35.495804
LeftArm 130.278901 -67.474246 -152.305394
LeftForeArm -59.414262 -0.000000 126.741501
LeftHand -12.931105 -0.000000 -8.374186
LeftHandThumb1 -26.253704 0.000000 33.147579
RightShoulder -76.955051 49.770899 -148.287494
RightArm 59.178269 3.519172 61.838660
RightForeArm 22.018191 -0.000000 124.945960
RightHand 6.304530 -0.000000 5.416053
RightHandThumb1 -24.326973 -0.000000 -32.862282
LeftUpLeg -20.554686 4.196959 -0.070349
LeftLeg -2.507171 -0.000000 0.000000
LeftFoot -4.108286 -3.978993 -3.184489
LeftToeBase 3.109679 -0.000000 -0.000000
RightUpLeg -19.991625 -7.997023 4.427088
RightLeg -3.045353 -0.000000 0.000000
RightFoot -8.708497 -2.622832 10.825677
RightToeBase 15.631315 -0.000000 -0.000000
